<?xml version="1.0" encoding="UTF-8" standalone="no"?>
<svg
   width="21"
   height="19"
   viewBox="0 0 21 19"
   fill="none"
   version="1.1"
   id="svg7377"
   sodipodi:docname="message.svg"
   inkscape:version="1.2 (dc2aedaf03, 2022-05-15)"
   xmlns:inkscape="http://www.inkscape.org/namespaces/inkscape"
   xmlns:sodipodi="http://sodipodi.sourceforge.net/DTD/sodipodi-0.dtd"
   xmlns="http://www.w3.org/2000/svg"
   xmlns:svg="http://www.w3.org/2000/svg">
  <defs
     id="defs7381" />
  <sodipodi:namedview
     id="namedview7379"
     pagecolor="#ffffff"
     bordercolor="#000000"
     borderopacity="0.25"
     inkscape:showpageshadow="2"
     inkscape:pageopacity="0.0"
     inkscape:pagecheckerboard="0"
     inkscape:deskcolor="#d1d1d1"
     showgrid="false"
     inkscape:zoom="43.631579"
     inkscape:cx="6.8413752"
     inkscape:cy="9.4885404"
     inkscape:window-width="1920"
     inkscape:window-height="1009"
     inkscape:window-x="-8"
     inkscape:window-y="-8"
     inkscape:window-maximized="1"
     inkscape:current-layer="svg7377" />
  <path
     d="M15.3212 0.758057C16.8351 0.775107 18.2761 1.41599 19.3085 2.5315C20.3408 3.64701 20.8745 5.13976 20.7865 6.61703L20.7852 12.854C20.8745 14.3763 20.3408 15.8691 19.3085 16.9846C18.2761 18.1001 16.8351 18.741 15.3127 18.7581H6.25208C3.08255 18.7581 0.795898 16.1965 0.795898 12.8991V6.61703C0.795898 3.31957 3.08255 0.758057 6.25208 0.758057H15.3212ZM15.3043 2.28644H6.25208C3.95869 2.28644 2.31334 4.12961 2.31334 6.61703V12.8991C2.31334 15.3865 3.95869 17.2297 6.25208 17.2297H15.3043C16.4032 17.2173 17.4491 16.7521 18.1985 15.9424C18.9479 15.1327 19.3352 14.0492 19.2691 12.8991L19.2704 6.57194C19.3352 5.46693 18.9479 4.38339 18.1985 3.57368C17.4491 2.76397 16.4032 2.29878 15.3043 2.28644ZM16.8199 6.39642C17.058 6.69598 17.0359 7.12067 16.7841 7.39357L16.7017 7.47061L12.5947 10.7817C11.5972 11.5648 10.219 11.6039 9.17894 10.8956L9.01763 10.7775L4.88316 7.47259C4.55494 7.21022 4.50002 6.72952 4.76051 6.39891C4.99731 6.09837 5.41326 6.02533 5.73353 6.21166L5.82647 6.27537L9.95571 9.57618C10.4187 9.93964 11.0534 9.9676 11.5367 9.66487L11.6542 9.5823L15.7535 6.27736C16.0806 6.01361 16.5581 6.06692 16.8199 6.39642Z"
     fill="#EA7C69"
     id="path7375"
     style="fill:#c9fbfa;fill-opacity:1" />
</svg>
